<svg id="visual" viewBox="0 0 960 300" width="960" height="300" xmlns="http://www.w3.org/2000/svg" xmlns:xlink="http://www.w3.org/1999/xlink" version="1.1"><path d="M0 65L17.8 88.2C35.7 111.3 71.3 157.7 106.8 158.3C142.3 159 177.7 114 213.2 100.3C248.7 86.7 284.3 104.3 320 112.2C355.7 120 391.3 118 426.8 119C462.3 120 497.7 124 533.2 136C568.7 148 604.3 168 640 182.5C675.7 197 711.3 206 746.8 208.5C782.3 211 817.7 207 853.2 197.2C888.7 187.3 924.3 171.7 942.2 163.8L960 156L960 301L942.2 301C924.3 301 888.7 301 853.2 301C817.7 301 782.3 301 746.8 301C711.3 301 675.7 301 640 301C604.3 301 568.7 301 533.2 301C497.7 301 462.3 301 426.8 301C391.3 301 355.7 301 320 301C284.3 301 248.7 301 213.2 301C177.7 301 142.3 301 106.8 301C71.3 301 35.7 301 17.8 301L0 301Z" fill="#fa7268"></path><path d="M0 118L17.8 126.5C35.7 135 71.3 152 106.8 175.5C142.3 199 177.7 229 213.2 238.2C248.7 247.3 284.3 235.7 320 223C355.7 210.3 391.3 196.7 426.8 187.5C462.3 178.3 497.7 173.7 533.2 180.8C568.7 188 604.3 207 640 209.7C675.7 212.3 711.3 198.7 746.8 179C782.3 159.3 817.7 133.7 853.2 137.5C888.7 141.3 924.3 174.7 942.2 191.3L960 208L960 301L942.2 301C924.3 301 888.7 301 853.2 301C817.7 301 782.3 301 746.8 301C711.3 301 675.7 301 640 301C604.3 301 568.7 301 533.2 301C497.7 301 462.3 301 426.8 301C391.3 301 355.7 301 320 301C284.3 301 248.7 301 213.2 301C177.7 301 142.3 301 106.8 301C71.3 301 35.7 301 17.8 301L0 301Z" fill="#fb6562"></path><path d="M0 186L17.8 186C35.7 186 71.3 186 106.8 200.3C142.3 214.7 177.7 243.3 213.2 237.5C248.7 231.7 284.3 191.3 320 182.5C355.7 173.7 391.3 196.3 426.8 213.5C462.3 230.7 497.7 242.3 533.2 237.8C568.7 233.3 604.3 212.7 640 194.3C675.7 176 711.3 160 746.8 159C782.3 158 817.7 172 853.2 184.5C888.7 197 924.3 208 942.2 213.5L960 219L960 301L942.2 301C924.3 301 888.7 301 853.2 301C817.7 301 782.3 301 746.8 301C711.3 301 675.7 301 640 301C604.3 301 568.7 301 533.2 301C497.7 301 462.3 301 426.8 301C391.3 301 355.7 301 320 301C284.3 301 248.7 301 213.2 301C177.7 301 142.3 301 106.8 301C71.3 301 35.7 301 17.8 301L0 301Z" fill="#fc565d"></path><path d="M0 206L17.8 217.3C35.7 228.7 71.3 251.3 106.8 258.8C142.3 266.3 177.7 258.7 213.2 243.3C248.7 228 284.3 205 320 196.2C355.7 187.3 391.3 192.7 426.8 208.2C462.3 223.7 497.7 249.3 533.2 258C568.7 266.7 604.3 258.3 640 246.7C675.7 235 711.3 220 746.8 209.7C782.3 199.3 817.7 193.7 853.2 196.5C888.7 199.3 924.3 210.7 942.2 216.3L960 222L960 301L942.2 301C924.3 301 888.7 301 853.2 301C817.7 301 782.3 301 746.8 301C711.3 301 675.7 301 640 301C604.3 301 568.7 301 533.2 301C497.7 301 462.3 301 426.8 301C391.3 301 355.7 301 320 301C284.3 301 248.7 301 213.2 301C177.7 301 142.3 301 106.8 301C71.3 301 35.7 301 17.8 301L0 301Z" fill="#fd4459"></path><path d="M0 220L17.8 227.3C35.7 234.7 71.3 249.3 106.8 255.8C142.3 262.3 177.7 260.7 213.2 262.8C248.7 265 284.3 271 320 274.5C355.7 278 391.3 279 426.8 271.3C462.3 263.7 497.7 247.3 533.2 246.2C568.7 245 604.3 259 640 270.2C675.7 281.3 711.3 289.7 746.8 284.3C782.3 279 817.7 260 853.2 257.5C888.7 255 924.3 269 942.2 276L960 283L960 301L942.2 301C924.3 301 888.7 301 853.2 301C817.7 301 782.3 301 746.8 301C711.3 301 675.7 301 640 301C604.3 301 568.7 301 533.2 301C497.7 301 462.3 301 426.8 301C391.3 301 355.7 301 320 301C284.3 301 248.7 301 213.2 301C177.7 301 142.3 301 106.8 301C71.3 301 35.7 301 17.8 301L0 301Z" fill="#fe2c55"></path></svg>